name analog
datacolumns 19
datarows 46
range 0.1695 0.192
endheader
time	ground_force_vx	ground_force_vy	ground_force_vz	ground_force_px	ground_force_py	ground_force_pz	l_ground_force_vx	l_ground_force_vy	l_ground_force_vz	l_ground_force_px	l_ground_force_py	l_ground_force_pz	ground_torque_x	ground_torque_y	ground_torque_z	l_ground_torque_x	l_ground_torque_y	l_ground_torque_z
0.1695	-0.0	-0.0	-0.0	-0.0	-0.0	-0.0	-0.2073036581277847	1.374720811843872	-755.3325805664062	-0.0	-0.0	-0.0	-0.0	-0.0	-0.0	265446.125	-14356.337890625	-59.12633514404297
0.17	-0.0	-0.0	-0.0	-0.0	-0.0	-0.0	0.4926851391792297	-0.5000338554382324	-757.0789184570312	-0.0	-0.0	-0.0	-0.0	-0.0	-0.0	265706.21875	-14536.513671875	349.34478759765625
0.1705	-0.0	-0.0	-0.0	-0.0	-0.0	-0.0	0.5228579640388489	-2.098973274230957	-758.0081787109375	-0.0	-0.0	-0.0	-0.0	-0.0	-0.0	265625.5	-14580.3017578125	411.98974609375
0.171	-0.0	-0.0	-0.0	-0.0	-0.0	-0.0	0.0303916335105896	-2.40322208404541	-756.574951171875	-0.0	-0.0	-0.0	-0.0	-0.0	-0.0	265340.625	-14587.9990234375	352.2667541503906
0.1715	-0.0	-0.0	-0.0	-0.0	-0.0	-0.0	-0.2845084071159363	-3.021232843399048	-756.1058959960938	-0.0	-0.0	-0.0	-0.0	-0.0	-0.0	264882.6875	-14581.3515625	134.05462646484375
0.17200000000000001	-0.0	-0.0	-0.0	-0.0	-0.0	-0.0	-0.6517661809921265	-3.060603380203247	-756.262451171875	-0.0	-0.0	-0.0	-0.0	-0.0	-0.0	264534.53125	-14788.28125	96.8229751586914
0.17250000000000001	-0.0	-0.0	-0.0	-0.0	-0.0	-0.0	-0.1595305055379867	-3.8375401496887207	-756.41943359375	-0.0	-0.0	-0.0	-0.0	-0.0	-0.0	264283.96875	-14321.8623046875	231.8616485595703
0.17300000000000001	-0.0	-0.0	-0.0	-0.0	-0.0	-0.0	0.2350493222475052	-4.186357021331787	-754.7086181640625	-0.0	-0.0	-0.0	-0.0	-0.0	-0.0	263582.53125	-14643.8056640625	482.6047668457031
0.17350000000000002	-0.0	-0.0	-0.0	-0.0	-0.0	-0.0	0.5235613584518433	-4.906186103820801	-754.270263671875	-0.0	-0.0	-0.0	-0.0	-0.0	-0.0	262945.0	-14892.8291015625	635.4478759765625
0.17400000000000002	-0.0	-0.0	-0.0	-0.0	-0.0	-0.0	0.9672367572784424	-5.250868320465088	-752.2302856445312	-0.0	-0.0	-0.0	-0.0	-0.0	-0.0	262266.03125	-14985.3173828125	611.7715454101562
0.17450000000000002	-0.0	-0.0	-0.0	-0.0	-0.0	-0.0	0.878670871257782	-5.282501220703125	-751.8482055664062	-0.0	-0.0	-0.0	-0.0	-0.0	-0.0	261756.46875	-15070.8046875	694.9774780273438
0.17500000000000002	-0.0	-0.0	-0.0	-0.0	-0.0	-0.0	1.201765775680542	-5.202675819396973	-750.8341674804688	-0.0	-0.0	-0.0	-0.0	-0.0	-0.0	260971.59375	-15375.751953125	662.7907104492188
0.17550000000000002	-0.0	-0.0	-0.0	-0.0	-0.0	-0.0	1.8867347240448	-5.540562152862549	-750.6146240234375	-0.0	-0.0	-0.0	-0.0	-0.0	-0.0	260533.96875	-15517.638671875	722.8646850585938
0.176	-0.0	-0.0	-0.0	-0.0	-0.0	-0.0	2.532294273376465	-6.134337902069092	-749.5015869140625	-0.0	-0.0	-0.0	-0.0	-0.0	-0.0	260097.59375	-15508.330078125	1016.9197387695312
0.1765	-0.0	-0.0	-0.0	-0.0	-0.0	-0.0	2.645370960235596	-6.190459251403809	-747.9769287109375	-0.0	-0.0	-0.0	-0.0	-0.0	-0.0	259487.546875	-15597.6953125	1008.8863525390624
0.177	-0.0	-0.0	-0.0	-0.0	-0.0	-0.0	2.597331047058105	-6.157908439636231	-746.1060791015625	-0.0	-0.0	-0.0	-0.0	-0.0	-0.0	258979.828125	-15611.2080078125	952.1589965820312
0.1775	-0.0	-0.0	-0.0	-0.0	-0.0	-0.0	2.2254796028137207	-5.5239434242248535	-745.8181762695312	-0.0	-0.0	-0.0	-0.0	-0.0	-0.0	258213.78125	-15277.658203125	671.48779296875
0.178	-0.0	-0.0	-0.0	-0.0	-0.0	-0.0	1.3559852838516235	-4.610360622406006	-743.2141723632812	-0.0	-0.0	-0.0	-0.0	-0.0	-0.0	257788.265625	-14940.7919921875	312.53857421875
0.1785	-0.0	-0.0	-0.0	-0.0	-0.0	-0.0	0.916979193687439	-3.694640636444092	-742.29638671875	-0.0	-0.0	-0.0	-0.0	-0.0	-0.0	257329.765625	-14679.478515625	45.4583625793457
0.179	-0.0	-0.0	-0.0	-0.0	-0.0	-0.0	0.9758186340332032	-2.9624454975128174	-740.2884521484375	-0.0	-0.0	-0.0	-0.0	-0.0	-0.0	256842.34375	-14465.9150390625	-85.30916595458984
0.1795	-0.0	-0.0	-0.0	-0.0	-0.0	-0.0	0.7838990688323975	-2.6902027130126958	-738.9366455078125	-0.0	-0.0	-0.0	-0.0	-0.0	-0.0	256551.359375	-14127.99609375	-237.4381103515625
0.18	-0.0	-0.0	-0.0	-0.0	-0.0	-0.0	-0.1916297972202301	-2.20804214477539	-738.5675048828125	-0.0	-0.0	-0.0	-0.0	-0.0	-0.0	256474.390625	-13873.921875	-372.6853942871094
0.1805	-0.0	-0.0	-0.0	-0.0	-0.0	-0.0	-0.9139467477798462	-2.344012498855591	-736.0115966796875	-0.0	-0.0	-0.0	-0.0	-0.0	-0.0	255804.15625	-13390.9296875	-656.1972045898438
0.181	-0.0	-0.0	-0.0	-0.0	-0.0	-0.0	-1.5080833435058594	-1.4945893287658691	-734.21142578125	-0.0	-0.0	-0.0	-0.0	-0.0	-0.0	255238.109375	-12963.361328125	-994.0422973632812
0.1815	-0.0	-0.0	-0.0	-0.0	-0.0	-0.0	-2.3132450580596924	-1.0804482698440552	-731.2847900390625	-0.0	-0.0	-0.0	-0.0	-0.0	-0.0	254456.34375	-12574.4111328125	-1295.6983642578125
0.182	-0.0	-0.0	-0.0	-0.0	-0.0	-0.0	-3.555074691772461	-0.9925497770309448	-731.446533203125	-0.0	-0.0	-0.0	-0.0	-0.0	-0.0	254045.46875	-12168.7890625	-1625.0242919921875
0.1825	-0.0	-0.0	-0.0	-0.0	-0.0	-0.0	-3.80156683921814	-0.605311930179596	-729.275390625	-0.0	-0.0	-0.0	-0.0	-0.0	-0.0	253352.71875	-11941.7578125	-1897.010009765625
0.183	-0.0	-0.0	-0.0	-0.0	-0.0	-0.0	-3.944429397583008	-0.0	-727.9559326171875	-0.0	-0.0	-0.0	-0.0	-0.0	-0.0	253292.640625	-11632.271484375	-2001.9171142578125
0.1835	-0.0	-0.0	-0.0	-0.0	-0.0	-0.0	-4.654176235198975	0.1891477704048156	-727.2333374023438	-0.0	-0.0	-0.0	-0.0	-0.0	-0.0	253265.109375	-11576.0673828125	-2220.58251953125
0.184	-0.0	-0.0	-0.0	-0.0	-0.0	-0.0	-5.110072612762451	0.671574592590332	-726.7952880859375	-0.0	-0.0	-0.0	-0.0	-0.0	-0.0	253193.40625	-11580.939453125	-2313.156005859375
0.1845	-0.0	-0.0	-0.0	-0.0	-0.0	-0.0	-4.068621635437012	1.378002405166626	-727.0725708007812	-0.0	-0.0	-0.0	-0.0	-0.0	-0.0	253594.875	-11527.3359375	-2318.357421875
0.185	-0.0	-0.0	-0.0	-0.0	-0.0	-0.0	-3.761334419250488	2.0137429237365723	-728.3535766601562	-0.0	-0.0	-0.0	-0.0	-0.0	-0.0	253952.140625	-11688.4560546875	-2126.10986328125
0.1855	-0.0	-0.0	-0.0	-0.0	-0.0	-0.0	-3.501190423965454	3.2793939113616943	-728.0265502929688	-0.0	-0.0	-0.0	-0.0	-0.0	-0.0	254304.421875	-11650.6953125	-2014.9521484375
0.186	-0.0	-0.0	-0.0	-0.0	-0.0	-0.0	-3.4653944969177246	4.062797546386719	-729.4964599609375	-0.0	-0.0	-0.0	-0.0	-0.0	-0.0	254689.140625	-11838.796875	-2163.113037109375
0.1865	-0.0	-0.0	-0.0	-0.0	-0.0	-0.0	-4.180464744567871	4.291858673095703	-731.1016845703125	-0.0	-0.0	-0.0	-0.0	-0.0	-0.0	255245.0	-11625.361328125	-2311.98046875
0.187	-0.0	-0.0	-0.0	-0.0	-0.0	-0.0	-4.97866678237915	4.852285385131836	-730.7529907226562	-0.0	-0.0	-0.0	-0.0	-0.0	-0.0	255442.71875	-11398.84375	-2610.927490234375
0.1875	-0.0	-0.0	-0.0	-0.0	-0.0	-0.0	-5.181615829467773	5.392909526824951	-730.0760498046875	-0.0	-0.0	-0.0	-0.0	-0.0	-0.0	255245.28125	-11499.357421875	-2776.790771484375
0.188	-0.0	-0.0	-0.0	-0.0	-0.0	-0.0	-5.807973861694336	5.159104824066162	-730.0557250976562	-0.0	-0.0	-0.0	-0.0	-0.0	-0.0	254695.140625	-11102.880859375	-2850.568115234375
0.1885	-0.0	-0.0	-0.0	-0.0	-0.0	-0.0	-6.653308868408203	4.940968990325928	-728.923828125	-0.0	-0.0	-0.0	-0.0	-0.0	-0.0	254314.09375	-10739.3515625	-3109.2998046875
0.189	-0.0	-0.0	-0.0	-0.0	-0.0	-0.0	-7.592227458953857	4.80116081237793	-728.679443359375	-0.0	-0.0	-0.0	-0.0	-0.0	-0.0	254286.75	-10736.4501953125	-3532.53857421875
0.1895	-0.0	-0.0	-0.0	-0.0	-0.0	-0.0	-8.553352355957031	4.867300987243652	-728.495361328125	-0.0	-0.0	-0.0	-0.0	-0.0	-0.0	254352.578125	-10471.23046875	-3739.288818359375
0.19	-0.0	-0.0	-0.0	-0.0	-0.0	-0.0	-9.314632415771484	5.080838680267334	-727.8157958984375	-0.0	-0.0	-0.0	-0.0	-0.0	-0.0	254350.6875	-10332.7333984375	-4013.12548828125
0.1905	-0.0	-0.0	-0.0	-0.0	-0.0	-0.0	-9.580764770507812	5.261949062347412	-729.7269287109375	-0.0	-0.0	-0.0	-0.0	-0.0	-0.0	254352.546875	-10561.125	-4228.79150390625
0.191	-0.0	-0.0	-0.0	-0.0	-0.0	-0.0	-9.183796882629396	5.210979461669922	-729.9102783203125	-0.0	-0.0	-0.0	-0.0	-0.0	-0.0	254730.40625	-10680.009765625	-4130.00146484375
0.1915	-0.0	-0.0	-0.0	-0.0	-0.0	-0.0	-9.403343200683594	5.122657775878906	-732.6690063476562	-0.0	-0.0	-0.0	-0.0	-0.0	-0.0	255255.59375	-10957.4150390625	-4059.60791015625
0.192	-0.0	-0.0	-0.0	-0.0	-0.0	-0.0	-8.828821182250977	4.857692718505859	-733.2349243164062	-0.0	-0.0	-0.0	-0.0	-0.0	-0.0	255610.328125	-11315.962890625	-3787.91162109375
